<svg xmlns="http://www.w3.org/2000/svg" width="64" height="64" viewBox="0 0 128 128">
  <title>PLUMBER</title>
  <path d="M120.426,104.739l-42.39-42.39L100.4,39.984a15.749,15.749,0,0,0,18.822-15.447A15.787,15.787,0,0,0,109.084,9.815a1.75,1.75,0,0,0-2.374,1.635v9.07a3.243,3.243,0,0,1-2.757,3.212,4.3,4.3,0,0,1-.48.038,3.214,3.214,0,0,1-3-2.011,2.889,2.889,0,0,1-.266-1.237l.01-9.06a1.75,1.75,0,0,0-2.363-1.641A15.289,15.289,0,0,0,92.333,13.4a15.77,15.77,0,0,0-4.308,14.208L69.96,45.675,49.406,25.121a1.8,1.8,0,0,0-2.474,0L28.473,43.578l-7.425-7.424L39.506,17.7a1.748,1.748,0,0,0,0-2.474L33.849,9.565a1.748,1.748,0,0,0-2.4-.068L8.466,30.005a8.467,8.467,0,0,0-.349,12.3l2.152,2.152a1.749,1.749,0,0,0,2.475,0l.174-.174,7.421,7.429-3.014,3.014a1.748,1.748,0,0,0,.19,2.639l11.332,8.467a1.747,1.747,0,0,0,2.284-.164l1.582-1.582,7.461,7.453-2.311,2.311a1.751,1.751,0,0,0,0,2.475l.171.175c.184.189.377.349.565.526L27.609,88.016A15.75,15.75,0,0,0,8.778,103.464a15.785,15.785,0,0,0,10.138,14.721,1.75,1.75,0,0,0,2.374-1.635v-9.07a3.246,3.246,0,0,1,2.822-3.214,2.089,2.089,0,0,1,.415-.036,3.214,3.214,0,0,1,3,2.011,2.889,2.889,0,0,1,.266,1.237l-.01,9.06a1.75,1.75,0,0,0,2.363,1.641,15.289,15.289,0,0,0,5.524-3.582A15.819,15.819,0,0,0,39.982,100.4L54.51,85.874,56.439,87.8A5.7,5.7,0,0,0,60.5,89.5h.008a5.753,5.753,0,0,0,4.071-9.815l-1.933-1.934,3.019-3.025,41.661,41.661a8.69,8.69,0,0,0,6.184,2.563h0a8.686,8.686,0,0,0,6.186-2.563,9.148,9.148,0,0,0,2.651-6.006A7.373,7.373,0,0,0,120.426,104.739ZM91.188,29.4A1.753,1.753,0,0,0,91.64,27.7a12.258,12.258,0,0,1,3.171-11.831,12.129,12.129,0,0,1,1.906-1.567L96.71,20.52a6.3,6.3,0,0,0,.569,2.663A6.634,6.634,0,0,0,98.7,25.3a6.776,6.776,0,0,0,4.823,1.972,8.166,8.166,0,0,0,.977-.08,6.727,6.727,0,0,0,5.707-6.669V14.3a12.257,12.257,0,0,1,1.923,18.9A12.284,12.284,0,0,1,100.3,36.37a1.748,1.748,0,0,0-1.69.453L75.655,59.78,75.6,52.026a1.753,1.753,0,0,0-.513-1.224L72.435,48.15ZM9.14,36.18A4.922,4.922,0,0,1,10.8,32.616L32.543,13.209l3.25,3.25L11.507,40.746l-.915-.915A4.921,4.921,0,0,1,9.14,36.18Zm6.253,5.629,3.181-3.181L26,46.053l-3.185,3.185Zm19.8,19.8,3.185-3.184,7.457,7.457-3.181,3.18ZM48.3,63.41l-7.457-7.457,7.3-7.3L55.6,56.113Zm-11.481,35.2a1.745,1.745,0,0,0-.454,1.686,12.311,12.311,0,0,1-3.18,11.828,12.129,12.129,0,0,1-1.906,1.567l.007-6.214a6.3,6.3,0,0,0-.569-2.663A6.634,6.634,0,0,0,29.3,102.7a6.737,6.737,0,0,0-4.757-1.973,5.411,5.411,0,0,0-1.037.09,6.7,6.7,0,0,0-5.713,6.66V113.7a12.259,12.259,0,0,1-1.923-18.9A12.293,12.293,0,0,1,27.708,91.63a1.75,1.75,0,0,0,1.69-.453L41.443,79.132a12.207,12.207,0,0,0,7.731,1.407L52.035,83.4ZM62.1,85.333a2.243,2.243,0,0,1-1.6.665h0a2.227,2.227,0,0,1-1.586-.665L53.1,79.512a26.394,26.394,0,0,0,4.251-2.11l1.584,1.584,0,0,0,0L62.1,82.157a2.245,2.245,0,0,1,0,3.176Zm55.121,28.578a5.212,5.212,0,0,1-3.711,1.537h0a5.221,5.221,0,0,1-3.711-1.537L64.94,69.052a1.75,1.75,0,0,0-2.432-.042,46.35,46.35,0,0,1-5.782,4.662,1.811,1.811,0,0,0-.2.135,19.728,19.728,0,0,1-7.091,3.135l-.007,0a9.229,9.229,0,0,1-7.812-1.9l2.264-2.264,0,0,0-.006,5.6-5.6c.018-.017.04-.029.058-.048s.031-.04.049-.058l9.718-9.718a1.751,1.751,0,0,0,0-2.475l-9.932-9.932a1.751,1.751,0,0,0-2.475,0l-9.744,9.744c-.009.009-.021.015-.03.025s-.016.021-.025.03l-5.6,5.6c-.012.01-.024.017-.035.028s-.018.024-.029.035l-1.715,1.715-8.5-6.35,26.94-26.94L68.721,49.385l0,0,0,0,3.38,3.38.057,7.943c.009,1.13.915,1.48,2.15,2.862l.011.013.013.011,43.615,43.615C119.153,108.416,119.377,111.757,117.223,113.911Z"/>
</svg>
