<svg xmlns="http://www.w3.org/2000/svg" width="64" height="64" viewBox="0 0 128 128">
  <title>PIPELINE</title>
  <path d="M96.761,63.178A5.749,5.749,0,0,0,85.8,63.13H75.689V53.75h5.129A1.75,1.75,0,0,0,82.568,52V42a1.75,1.75,0,0,0-1.75-1.75H72.689v-7.5h4.379v2.432a1.751,1.751,0,0,0,1.75,1.75h10a1.75,1.75,0,0,0,1.75-1.75V32.75h4.7a5.75,5.75,0,0,0,0-11.5h-4.7V18.818a1.75,1.75,0,0,0-1.75-1.75h-10a1.751,1.751,0,0,0-1.75,1.75V21.25H50.932V18.818a1.751,1.751,0,0,0-1.75-1.75h-10a1.75,1.75,0,0,0-1.75,1.75V21.25h-4.7a5.75,5.75,0,1,0,0,11.5h4.7v2.432a1.75,1.75,0,0,0,1.75,1.75h10a1.751,1.751,0,0,0,1.75-1.75V32.75h4.257v7.5H47.182A1.75,1.75,0,0,0,45.432,42V52a1.75,1.75,0,0,0,1.75,1.75h5.007v9.38H42.083a5.749,5.749,0,0,0-10.965.048A26.783,26.783,0,0,0,5.858,89.884v18.037a1.75,1.75,0,0,0,1.75,1.75h25a1.749,1.749,0,0,0,1.75-1.75V95.175a5.749,5.749,0,0,0,7.729-3.545H85.792a5.747,5.747,0,0,0,7.727,3.545v12.746a1.75,1.75,0,0,0,1.75,1.75h25a1.749,1.749,0,0,0,1.75-1.75V89.884A26.782,26.782,0,0,0,96.761,63.178ZM95.269,24.75a2.25,2.25,0,0,1,0,4.5h-4.7v-4.5Zm-8.2-4.182V33.432h-6.5V31.019l0-.019,0-.019V23.019l0-.019,0-.019V20.568ZM32.73,29.25a2.25,2.25,0,1,1,0-4.5h4.7v4.5Zm8.2,4.182V20.568h6.5v2.413l0,.019,0,.019v7.962l0,.019,0,.019v2.413Zm10-8.682H77.068v4.5H50.932Zm7.757,8h10.5v7.5h-10.5Zm-9.757,11H79.068v6.5H48.932Zm23.257,10V66.636a8.25,8.25,0,0,1-16.5,0V53.75Zm-8.25,24.636a11.763,11.763,0,0,0,11.75-11.75V66.63h9.83v21.5H42.359V66.63h9.83v.006A11.764,11.764,0,0,0,63.939,78.386ZM30.858,106.171H9.358V89.884A23.28,23.28,0,0,1,30.858,66.7Zm8-16.287a2.25,2.25,0,0,1-4.5,0V64.877a2.25,2.25,0,0,1,4.5.007Zm52.41,2.25a2.253,2.253,0,0,1-2.25-2.25v-25a2.25,2.25,0,0,1,4.5,0v25A2.252,2.252,0,0,1,91.269,92.134Zm27.25,14.037h-21.5V66.7a23.28,23.28,0,0,1,21.5,23.184Z"/>
</svg>
