<svg xmlns="http://www.w3.org/2000/svg" width="64" height="64" viewBox="0 0 128 128">
  <title>REPAIR</title>
  <g>
    <path d="M122.433,58.942c-.45-2.518-.663-3.722-.874-4.926s-.426-2.411-.876-4.933a1.75,1.75,0,0,0-1.484-1.426l-16.121-2.224c-1.615-2.8-2.358-4.085-3.3-5.709l6.144-15.063a1.751,1.751,0,0,0-.491-2l-1.862-1.571c-2.138-1.806-2.642-2.231-5.8-4.883a1.751,1.751,0,0,0-2.057-.14L81.924,24.752c-2.418-.884-3.785-1.386-6.19-2.27l-4.988-15.5A1.75,1.75,0,0,0,69.08,5.77H59.07A1.75,1.75,0,0,0,57.4,6.984l-4.988,15.5-6.191,2.27L32.442,16.069a1.749,1.749,0,0,0-2.055.139c-2.6,2.175-3.4,2.852-4.788,4.022l-2.886,2.431a1.751,1.751,0,0,0-.493,2l6.154,15.062c-.937,1.611-1.663,2.869-3.3,5.709L8.941,47.657a1.748,1.748,0,0,0-1.483,1.426c-.545,3.049-.743,4.175-1.01,5.7l-.731,4.161A1.748,1.748,0,0,0,6.624,60.8l14.4,7.59c.018.1,1.035,5.877,1.144,6.5L11.233,86.944a1.751,1.751,0,0,0-.219,2.05c.058.1,3.582,6.2,4.178,7.236L9.73,100.954a12.11,12.11,0,0,0,7.926,21.271c.144,0,.289,0,.433-.008a12.148,12.148,0,0,0,8.723-4.181L38.688,104.3l-.436,11.271a1.748,1.748,0,0,0,1.148,1.712l9.412,3.43a1.747,1.747,0,0,0,1.98-.571l9.985-12.863h6.6l9.974,12.862a1.748,1.748,0,0,0,1.981.572l1.752-.637c3.1-1.129,3.539-1.287,7.661-2.793a1.751,1.751,0,0,0,1.148-1.71l-.618-16.263c1.972-1.649,3.088-2.586,5.052-4.248L110.251,98.5a1.751,1.751,0,0,0,1.886-.839c1.978-3.441,2.11-3.671,5-8.666a1.751,1.751,0,0,0-.219-2.052L105.981,74.889c.788-4.486.929-5.294,1.138-6.5L121.525,60.8A1.749,1.749,0,0,0,122.433,58.942ZM24.165,115.747A8.611,8.611,0,1,1,12.019,103.6L46.6,73.7a1.751,1.751,0,0,0,.432-2.082A19.463,19.463,0,0,1,64.577,43.723c.465,0,.93.016,1.392.048L52.591,57.15a1.749,1.749,0,0,0-.431,1.767l3.828,12.05a1.752,1.752,0,0,0,1.139,1.138l12.05,3.829a1.748,1.748,0,0,0,1.767-.431L84.026,62.42A19.485,19.485,0,0,1,64.577,82.651a19.243,19.243,0,0,1-8.422-1.924,1.75,1.75,0,0,0-2.084.432l-5.948,6.879c-.012.013-.023.027-.035.041L39.257,98.292c-.015.019-.034.036-.049.057ZM87.017,58.292a1.75,1.75,0,0,0-2.947-.864L69.222,72.276,59.05,69.044,55.818,58.873,70.873,43.817a1.751,1.751,0,0,0-.821-2.937A22.98,22.98,0,0,0,41.616,63.187,22.739,22.739,0,0,0,43.332,71.9l-4.385,3.792A28.055,28.055,0,1,1,52.2,88.672l3.667-4.241a22.689,22.689,0,0,0,8.708,1.72,22.975,22.975,0,0,0,22.44-27.859Zm17.708,7.4a1.748,1.748,0,0,0-.91,1.252c-.333,1.943-.5,2.867-1.429,8.186a1.75,1.75,0,0,0,.427,1.476L113.466,88.35c-1.76,3.045-1.976,3.416-3.726,6.46L94.219,91.459a1.753,1.753,0,0,0-1.5.376c-2.617,2.217-3.725,3.145-6.352,5.343a1.747,1.747,0,0,0-.625,1.408l.6,15.848c-3.045,1.112-3.688,1.346-6.46,2.354l-.552.2-9.718-12.531a1.75,1.75,0,0,0-1.383-.678H59.92a1.748,1.748,0,0,0-1.382.677L48.81,116.989,41.8,114.433l.557-14.373,7.482-8.653A31.568,31.568,0,1,0,36.228,78.042L17.889,93.9c-.087-.15-.395-.686-3.2-5.549L25.336,76.606a1.751,1.751,0,0,0,.428-1.476c-1.537-8.833-1.35-8.912-2.348-9.438L9.384,58.3,9.9,55.389c.227-1.3.4-2.3.784-4.439L26.4,48.783c1.169-.161.993-.42,5.433-8.042A1.754,1.754,0,0,0,31.94,39.2l-6-14.681,1.914-1.612c1.192-1.006,1.952-1.647,3.8-3.195l13.431,8.461a1.756,1.756,0,0,0,1.534.162l7.8-2.86a1.752,1.752,0,0,0,1.064-1.107l4.859-15.1h7.46l4.859,15.1a1.75,1.75,0,0,0,1.063,1.107l.312.114c2.991,1.1,4.366,1.605,7.49,2.746a1.75,1.75,0,0,0,1.534-.162l13.43-8.46c2.313,1.941,2.923,2.456,4.817,4.055l.889.751L96.209,39.2a1.749,1.749,0,0,0,.109,1.542c1.349,2.316,2.056,3.544,4.157,7.184a1.749,1.749,0,0,0,1.276.858L117.46,50.95c.3,1.7.478,2.689.651,3.674s.348,1.971.652,3.674Z"/>
    <path d="M18.284,104.278a5.154,5.154,0,1,0,5.155,5.155A5.16,5.16,0,0,0,18.284,104.278Zm0,6.808a1.654,1.654,0,1,1,1.655-1.653A1.655,1.655,0,0,1,18.284,111.086Z"/>
  </g>
</svg>
